<?xml version="1.0" standalone="no"?>
<!DOCTYPE svg PUBLIC "-//W3C//DTD SVG 20010904//EN"
 "http://www.w3.org/TR/2001/REC-SVG-20010904/DTD/svg10.dtd">
<svg version="1.0" xmlns="http://www.w3.org/2000/svg"
 width="1253.000000pt" height="1280.000000pt" viewBox="0 0 1253.000000 1280.000000"
 preserveAspectRatio="xMidYMid meet">
<g transform="translate(0.000000,1280.000000) scale(0.100000,-0.100000)"
fill="#000000" stroke="none">
<path d="M4867 12636 c-95 -26 -147 -87 -147 -173 0 -63 23 -113 72 -160 43
-41 80 -55 149 -55 72 0 129 18 174 54 48 40 67 80 67 142 1 149 -145 238
-315 192z"/>
<path d="M34 12599 c16 -146 27 -328 22 -364 -4 -36 0 -51 30 -101 97 -160
235 -289 402 -373 154 -78 305 -116 681 -171 303 -45 365 -57 521 -102 530
-152 917 -471 1201 -992 63 -115 71 -108 44 43 -90 507 -437 951 -930 1191
-219 106 -341 139 -795 215 -151 25 -330 59 -398 75 -394 95 -624 267 -757
567 l-26 58 5 -46z"/>
<path d="M7850 12390 c-58 -12 -120 -56 -142 -100 -38 -74 -13 -177 57 -238
48 -43 77 -54 145 -54 80 0 136 18 180 58 77 70 89 171 29 254 -51 70 -160
102 -269 80z"/>
<path d="M3795 12076 c-59 -27 -77 -46 -104 -106 -28 -61 -28 -159 0 -220 94
-209 364 -201 435 13 33 100 4 220 -70 285 -65 57 -175 69 -261 28z"/>
<path d="M11143 12006 c-41 -35 -53 -78 -55 -203 -2 -114 13 -152 71 -179 30
-14 56 -16 171 -10 74 3 144 9 156 12 20 5 21 14 28 196 4 105 5 193 2 196 -3
3 -81 7 -173 10 l-168 5 -32 -27z"/>
<path d="M9405 11905 c-48 -24 -239 -221 -232 -238 9 -23 191 -182 230 -201
78 -36 134 -9 248 120 107 119 106 116 29 186 -151 139 -209 167 -275 133z"/>
<path d="M6684 11820 c3 -36 11 -146 17 -245 l11 -180 40 -69 c57 -102 123
-179 212 -251 98 -80 182 -124 319 -170 136 -46 238 -66 538 -110 283 -42 354
-55 503 -96 483 -133 860 -406 1128 -819 31 -47 79 -128 107 -180 49 -92 51
-94 51 -57 0 22 -9 85 -21 140 -57 286 -195 548 -398 760 -168 175 -305 274
-526 383 -232 113 -400 160 -845 234 -499 84 -709 163 -892 338 -92 88 -155
179 -205 294 -20 46 -38 85 -40 88 -3 3 -3 -24 1 -60z"/>
<path d="M5020 11701 c-124 -44 -176 -160 -135 -299 52 -175 230 -235 373
-125 101 76 111 277 20 375 -60 63 -163 83 -258 49z"/>
<path d="M3365 11261 c-85 -40 -129 -116 -128 -226 0 -119 61 -220 145 -243
50 -13 159 2 209 29 64 35 102 103 107 188 2 37 -1 86 -8 109 -14 53 -72 119
-125 143 -53 25 -147 24 -200 0z"/>
<path d="M4230 11121 c-107 -35 -170 -124 -170 -241 0 -97 43 -172 124 -216
109 -59 242 -28 306 73 85 134 46 300 -87 367 -38 19 -137 29 -173 17z"/>
<path d="M445 10991 c-49 -22 -246 -216 -239 -234 6 -18 161 -159 209 -191 52
-36 109 -35 163 2 39 26 120 111 178 187 l29 38 -85 79 c-135 126 -188 151
-255 119z"/>
<path d="M1975 10645 c-202 -31 -400 -115 -540 -228 -107 -87 -126 -115 -147
-216 -9 -46 -33 -133 -52 -192 -20 -59 -36 -121 -36 -136 1 -107 166 -268 377
-369 40 -19 73 -37 73 -39 0 -3 -13 -32 -29 -64 -17 -32 -39 -86 -51 -121 -21
-62 -21 -67 -6 -174 8 -61 18 -154 21 -206 4 -52 13 -107 21 -121 23 -45 102
-106 177 -138 495 -205 1171 99 1310 589 18 62 32 160 24 160 -3 0 -16 -21
-29 -47 -29 -59 -182 -216 -263 -268 -342 -223 -810 -308 -1050 -190 -28 13
-70 41 -93 61 -34 28 -45 34 -56 25 -24 -20 -25 2 -5 59 40 114 149 259 257
342 59 45 67 48 124 48 88 0 257 27 343 55 94 31 162 65 245 123 l65 45 135
-6 c192 -8 361 -55 493 -137 27 -17 52 -29 54 -26 8 7 -39 84 -87 145 -79 99
-242 212 -364 251 -37 12 -38 14 -32 48 l5 36 -26 -28 c-23 -25 -30 -27 -67
-21 -156 26 -330 24 -462 -5 -130 -28 -298 -102 -399 -174 -27 -20 -57 -36
-66 -36 -44 0 -195 47 -278 87 -111 53 -180 116 -218 201 -15 31 -34 62 -42
69 -13 9 -8 18 34 57 315 293 902 364 1332 161 159 -75 261 -159 344 -283 28
-43 53 -79 56 -82 3 -3 3 33 0 80 -25 347 -290 599 -701 665 -108 18 -280 18
-391 0z"/>
<path d="M6760 10401 c-116 -36 -179 -129 -167 -248 12 -114 85 -211 175 -233
109 -26 218 25 267 123 68 140 8 311 -124 356 -38 12 -113 13 -151 2z"/>
<path d="M4222 10325 c-18 -8 -83 -63 -143 -122 l-110 -108 143 -142 143 -143
149 156 149 156 -69 69 c-131 133 -194 165 -262 134z"/>
<path d="M10159 10269 c-85 -14 -109 -60 -112 -219 -2 -123 10 -157 70 -185
32 -15 55 -17 163 -12 69 4 140 9 158 13 l32 7 0 102 c0 56 3 143 6 193 l7 90
-64 6 c-100 9 -223 12 -260 5z"/>
<path d="M10960 10123 c-53 -27 -73 -77 -78 -198 -6 -126 10 -168 72 -196 48
-22 106 -23 244 -8 l100 12 6 51 c3 28 6 117 6 199 l0 147 -62 0 c-35 0 -106
3 -158 6 -80 5 -101 3 -130 -13z"/>
<path d="M8714 9799 c-266 -25 -505 -134 -657 -298 -47 -51 -60 -74 -77 -134
-12 -39 -37 -125 -57 -191 -53 -178 -39 -238 84 -358 66 -65 208 -157 283
-184 59 -21 61 -31 20 -105 -54 -98 -69 -163 -59 -259 5 -47 12 -140 17 -207
7 -104 12 -127 33 -158 71 -106 295 -185 522 -185 368 1 793 251 941 554 25
50 50 118 56 151 13 68 10 193 -4 160 -46 -112 -84 -174 -150 -240 -155 -157
-388 -276 -676 -345 -127 -31 -345 -34 -435 -7 -84 26 -144 59 -184 101 -19
20 -41 36 -48 36 -22 0 -15 22 31 100 58 98 146 201 232 272 l69 56 116 11
c63 6 153 20 199 32 112 28 269 103 349 167 62 50 67 52 125 52 196 0 413 -73
555 -188 l34 -27 -8 25 c-28 89 -120 220 -202 285 -61 48 -161 103 -227 125
-23 7 -41 20 -44 32 -4 17 -6 17 -21 4 -12 -11 -26 -12 -61 -6 -72 14 -270 11
-366 -5 -165 -29 -330 -96 -474 -191 l-68 -45 -62 11 c-268 49 -474 196 -483
346 -2 36 1 41 65 89 94 71 205 128 328 169 160 53 240 67 415 73 185 6 288
-8 443 -59 182 -60 363 -199 447 -344 21 -36 42 -67 48 -71 12 -7 0 123 -19
199 -77 309 -370 518 -779 558 -112 11 -136 11 -251 -1z"/>
<path d="M6205 9334 c-787 -121 -1308 -589 -1462 -1313 -25 -117 -27 -143 -28
-376 0 -218 3 -266 23 -380 13 -71 28 -134 33 -139 6 -6 9 -6 9 0 0 36 53 519
66 604 72 472 270 745 734 1009 182 104 311 148 529 181 172 26 203 34 233 65
33 33 38 61 38 226 l0 139 -42 -1 c-24 -1 -83 -7 -133 -15z"/>
<path d="M3384 9162 c-1 -302 -51 -552 -158 -785 -76 -168 -214 -341 -356
-449 -81 -62 -260 -150 -360 -177 -87 -24 -255 -51 -317 -51 -28 0 -43 -4 -43
-12 1 -40 39 -340 44 -345 10 -10 202 45 325 93 506 198 844 540 956 969 67
261 50 544 -52 845 -14 41 -28 78 -32 82 -3 4 -6 -73 -7 -170z"/>
<path d="M10850 9191 c-115 -35 -168 -118 -157 -246 8 -113 81 -211 171 -233
87 -22 196 21 246 96 89 135 44 320 -92 376 -39 17 -125 20 -168 7z"/>
<path d="M10076 8245 c9 -361 -15 -525 -105 -710 -60 -122 -122 -205 -232
-310 -219 -210 -499 -340 -803 -374 -49 -6 -90 -12 -92 -14 -5 -5 23 -347 29
-354 3 -3 54 9 114 27 673 198 1094 594 1200 1127 26 133 24 365 -5 511 -23
116 -85 319 -102 336 -7 7 -8 -78 -4 -239z"/>
<path d="M912 8366 c-60 -15 -117 -57 -147 -107 -32 -54 -28 -178 7 -245 28
-54 84 -109 125 -125 45 -17 125 -10 179 15 89 41 134 118 134 226 0 173 -131
277 -298 236z"/>
<path d="M11128 8128 c-49 -13 -116 -72 -139 -122 -12 -27 -19 -65 -19 -112 0
-129 72 -221 190 -242 113 -20 206 24 254 121 52 103 38 213 -37 294 -59 64
-152 87 -249 61z"/>
<path d="M6098 7885 c-439 -60 -742 -258 -907 -591 -42 -85 -95 -237 -89 -254
2 -6 23 17 48 51 150 207 525 411 900 490 129 27 390 33 480 10 90 -22 176
-66 230 -117 46 -43 90 -108 90 -132 0 -5 -23 -45 -51 -87 -89 -137 -206 -245
-358 -332 -73 -42 -78 -43 -164 -43 -190 0 -383 -44 -532 -121 l-80 -41 -110
6 c-275 14 -527 96 -701 227 -87 65 -85 65 -68 17 44 -127 149 -285 248 -375
65 -59 169 -127 253 -165 54 -24 64 -32 60 -49 -5 -19 -4 -19 18 -5 22 14 30
14 92 -1 91 -22 302 -22 402 1 118 26 251 75 510 186 51 22 57 23 130 11 198
-34 385 -112 488 -205 73 -67 108 -124 130 -211 9 -36 19 -65 23 -65 14 0 88
59 108 87 28 39 44 106 36 151 -26 145 -221 343 -436 445 -48 23 -88 45 -88
48 0 4 20 36 45 73 69 104 105 257 105 451 0 39 7 99 16 135 14 54 15 72 5
109 -37 133 -292 264 -583 301 -100 12 -126 12 -250 -5z"/>
<path d="M3372 6503 c-115 -116 -148 -167 -138 -215 8 -42 54 -102 146 -193
l81 -80 144 150 c79 83 144 156 145 162 0 12 -244 273 -262 281 -5 2 -56 -45
-116 -105z"/>
<path d="M10890 6551 c-117 -36 -180 -130 -166 -250 20 -165 136 -261 280
-231 117 24 186 115 186 244 0 119 -54 203 -149 235 -38 12 -113 13 -151 2z"/>
<path d="M639 6451 c-141 -43 -189 -172 -108 -295 45 -67 117 -100 207 -94
143 10 233 102 219 224 -11 103 -105 175 -226 173 -37 0 -78 -4 -92 -8z"/>
<path d="M5083 6248 c6 -131 29 -216 88 -326 191 -358 650 -601 1135 -602 329
0 621 136 767 358 41 61 114 215 167 351 l21 54 -72 -67 c-383 -355 -1043
-437 -1566 -196 -226 105 -419 288 -509 485 -14 30 -28 55 -31 55 -3 0 -3 -51
0 -112z"/>
<path d="M8023 6215 c-37 -16 -253 -211 -253 -229 0 -6 63 -74 140 -151 l140
-140 61 60 c33 33 102 105 152 159 l91 100 -95 88 c-88 83 -156 129 -190 128
-8 -1 -28 -7 -46 -15z"/>
<path d="M2081 6125 c-73 -21 -115 -55 -136 -110 -36 -93 12 -207 107 -256 58
-30 169 -26 237 7 146 73 147 270 0 345 -53 27 -141 32 -208 14z"/>
<path d="M11833 5850 c-123 -26 -192 -122 -164 -226 39 -143 161 -200 321
-152 175 53 188 291 19 362 -47 20 -124 27 -176 16z"/>
<path d="M9004 5810 c11 -50 26 -246 26 -340 l0 -96 46 -70 c130 -193 287
-319 493 -394 155 -57 270 -81 646 -135 337 -49 583 -118 800 -225 367 -181
640 -453 854 -853 29 -54 55 -96 57 -94 11 10 -41 254 -77 361 -189 564 -697
989 -1339 1120 -41 9 -197 36 -345 60 -149 25 -333 61 -409 81 -360 92 -567
240 -697 500 -56 110 -63 122 -55 85z"/>
<path d="M5204 5645 c6 -165 27 -287 77 -438 197 -587 693 -1080 1285 -1276
67 -22 258 -74 425 -116 167 -42 357 -92 422 -111 564 -166 853 -397 978 -784
l28 -85 0 283 1 282 -39 78 c-88 174 -218 322 -372 425 -179 119 -355 181
-801 283 -369 84 -509 122 -654 179 -612 239 -1039 671 -1311 1325 l-44 105 5
-150z"/>
<path d="M4320 5369 c-47 -29 -220 -188 -220 -203 0 -12 265 -266 278 -266 4
0 72 65 152 145 l144 144 -20 22 c-33 36 -167 145 -201 163 -43 22 -91 20
-133 -5z"/>
<path d="M2875 5224 c-181 -30 -363 -101 -517 -199 -98 -64 -261 -230 -316
-323 -55 -95 -96 -199 -116 -295 -26 -123 -21 -131 26 -52 159 266 620 522
1056 585 123 18 339 8 424 -19 89 -28 182 -93 225 -156 19 -28 41 -51 49 -53
20 -5 18 -19 -13 -71 -71 -122 -220 -277 -348 -360 l-75 -49 -80 5 c-44 3
-129 0 -188 -7 -182 -21 -331 -73 -472 -164 -82 -53 -110 -56 -270 -31 -189
31 -382 112 -517 217 -99 77 -95 75 -84 45 74 -194 261 -380 486 -482 57 -26
75 -39 71 -50 -3 -8 -9 -23 -13 -32 -5 -13 0 -12 26 7 l33 23 87 -21 c156 -39
214 -46 386 -45 136 0 191 4 274 22 125 26 261 77 354 132 l67 40 63 -17 c213
-60 380 -171 441 -297 26 -52 48 -150 39 -172 -5 -15 -142 -105 -211 -139
-130 -65 -305 -116 -476 -137 -134 -16 -383 -6 -504 20 -385 84 -655 269 -807
553 l-45 83 0 -90 c0 -437 387 -812 940 -911 116 -21 345 -24 450 -5 207 37
389 123 524 250 85 80 112 125 197 338 99 246 105 286 55 387 -51 104 -234
274 -368 342 -27 14 -51 31 -54 38 -3 7 8 39 24 72 62 125 81 260 82 585 0
145 0 146 -29 190 -69 104 -244 193 -470 239 -116 23 -283 25 -406 4z"/>
<path d="M7886 5105 c-164 -180 -163 -206 6 -380 l98 -100 144 150 c80 83 145
157 146 165 0 16 -260 280 -277 280 -6 0 -59 -52 -117 -115z"/>
<path d="M9285 4082 c-39 -9 -43 -28 -43 -217 0 -207 1 -208 66 -219 35 -6
110 -4 217 4 l163 13 6 26 c3 14 8 100 12 191 5 139 4 168 -9 185 -14 18 -29
20 -199 22 -100 1 -196 -1 -213 -5z"/>
<path d="M10902 3969 c-375 -44 -704 -252 -846 -536 -53 -105 -70 -174 -57
-231 5 -27 13 -90 17 -140 4 -51 9 -90 13 -87 3 3 18 40 33 81 202 554 1109
817 1666 483 34 -21 62 -33 62 -27 0 5 -17 42 -37 82 -26 50 -62 96 -123 158
-73 72 -102 93 -181 131 -171 83 -342 110 -547 86z"/>
<path d="M5799 3723 c-174 -182 -195 -219 -162 -294 18 -39 195 -239 211 -239
4 0 74 70 156 156 l148 156 -138 139 c-76 77 -143 139 -149 139 -6 0 -36 -26
-66 -57z"/>
<path d="M1010 3612 c-83 -10 -108 -46 -121 -178 -13 -143 4 -194 76 -231 24
-13 53 -15 165 -9 74 3 145 9 156 12 20 5 22 14 29 196 4 104 4 192 2 195 -7
6 -272 19 -307 15z"/>
<path d="M10855 3340 c-177 -36 -325 -103 -457 -209 -91 -72 -146 -132 -153
-168 -3 -16 -17 -77 -31 -137 -16 -66 -23 -111 -17 -115 6 -3 13 -28 17 -55 8
-66 41 -118 118 -192 239 -230 605 -310 974 -213 233 61 434 216 525 405 23
46 44 84 49 84 5 0 38 -33 75 -72 l67 -73 -7 55 c-39 296 -261 548 -578 656
-164 56 -404 70 -582 34z m316 -281 c211 -27 468 -129 624 -248 79 -59 79 -64
12 -126 -171 -156 -501 -240 -845 -214 -352 26 -594 161 -636 355 -6 28 -3 35
31 61 54 43 137 88 217 118 182 69 358 84 597 54z"/>
<path d="M2054 2980 c22 -593 422 -1220 991 -1555 204 -121 314 -160 760 -271
512 -128 636 -168 830 -266 296 -149 479 -361 595 -687 l37 -103 6 122 c25
459 -30 698 -205 885 -85 91 -161 147 -283 208 -188 93 -357 143 -805 237
-262 55 -342 75 -460 114 -497 163 -894 463 -1175 888 -75 114 -170 287 -226
413 -74 169 -70 168 -65 15z"/>
<path d="M4672 2837 l-154 -154 74 -68 c104 -96 168 -137 226 -142 41 -4 53
-1 97 29 49 33 184 183 185 205 0 12 -257 283 -269 283 -3 0 -75 -69 -159
-153z"/>
<path d="M12090 2483 c-88 -171 -348 -356 -630 -447 -346 -113 -621 -97 -774
44 l-46 42 -20 -43 c-25 -56 -25 -119 -1 -168 74 -144 349 -239 588 -202 510
79 879 392 919 779 4 34 5 62 3 62 -2 0 -20 -30 -39 -67z"/>
<path d="M8944 2501 c-17 -8 -23 -21 -28 -68 -7 -63 7 -241 24 -304 l11 -39
178 0 c98 0 192 3 209 6 29 6 31 10 38 63 11 78 11 327 1 338 -12 11 -407 15
-433 4z"/>
<path d="M5799 2486 c-42 -24 -61 -77 -66 -190 -6 -119 7 -164 59 -197 31 -19
43 -20 187 -15 85 3 159 10 165 16 8 8 28 378 20 388 -1 2 -78 6 -171 8 -137
4 -173 2 -194 -10z"/>
<path d="M12390 2311 c0 -500 -146 -903 -421 -1167 -188 -180 -417 -279 -701
-304 -55 -4 -102 -11 -106 -14 -7 -8 29 -356 37 -356 3 0 47 11 96 24 597 161
1026 526 1169 996 31 101 66 298 66 369 0 58 -33 276 -56 366 -19 75 -74 245
-80 245 -2 0 -4 -72 -4 -159z"/>
<path d="M529 1473 c-122 -63 -133 -214 -21 -315 73 -66 173 -73 280 -22 75
37 107 87 107 170 0 53 -4 69 -30 105 -46 65 -100 89 -200 89 -69 0 -90 -4
-136 -27z"/>
<path d="M5801 1478 c-46 -25 -63 -61 -73 -156 -14 -122 -5 -177 36 -218 44
-44 97 -50 255 -33 l126 14 7 195 c4 107 6 195 5 196 -1 1 -76 5 -167 8 -126
5 -171 4 -189 -6z"/>
<path d="M7358 1157 c-105 -30 -162 -110 -161 -225 1 -85 48 -180 111 -226 40
-28 51 -31 115 -31 80 1 132 21 178 72 108 116 80 326 -52 394 -52 26 -130 33
-191 16z"/>
<path d="M10095 1142 c-81 -38 -128 -120 -127 -222 1 -151 92 -245 238 -244
62 0 78 4 120 30 74 45 108 108 112 203 3 67 0 82 -25 131 -18 36 -43 65 -71
85 -39 26 -53 30 -125 33 -64 2 -91 -2 -122 -16z"/>
<path d="M1963 910 c-75 -17 -96 -61 -100 -210 -4 -103 -2 -118 17 -148 34
-54 76 -66 215 -59 66 4 134 9 151 13 l31 6 7 106 c3 58 6 145 6 193 l0 88
-52 5 c-99 10 -243 13 -275 6z"/>
<path d="M6595 658 c-91 -32 -145 -119 -145 -234 0 -142 82 -234 215 -242 76
-5 125 10 171 51 48 41 76 100 81 172 7 82 -10 138 -58 190 -62 67 -176 94
-264 63z"/>
<path d="M2915 554 c-62 -18 -87 -74 -93 -205 -8 -200 40 -235 292 -209 l123
12 7 76 c3 41 6 131 6 199 l0 123 -47 0 c-27 0 -97 2 -158 5 -60 2 -119 2
-130 -1z"/>
</g>
</svg>
